<?xml version="1.0" encoding="UTF-8"?>
<!DOCTYPE svg PUBLIC "-//W3C//DTD SVG 1.1//EN" "http://www.w3.org/Graphics/SVG/1.1/DTD/svg11.dtd">
<svg version="1.1" xmlns="http://www.w3.org/2000/svg" xmlns:xlink="http://www.w3.org/1999/xlink" x="0" y="0" width="484.458" height="192.612" viewBox="0, 0, 484.458, 192.612">
  <g id="KPMG_logp" transform="translate(1145.449, -1766.57)">
    <path d="M-768.553,1766.57 L-768.553,1862.673 L-769.781,1863.686 L-771.008,1864.699 L-772.185,1865.762 L-773.31,1866.825 L-774.384,1867.889 L-775.458,1869.003 L-776.481,1870.117 L-777.504,1871.23 L-777.504,1766.57 L-885.064,1766.57 L-885.064,1854.066 L-893.963,1854.066 L-893.963,1766.57 L-1001.523,1766.57 L-1001.523,1854.218 L-1010.423,1854.218 L-1010.423,1766.57 L-1117.983,1766.57 L-1117.983,1866.471 L-1145.449,1957.055 L-1121.308,1957.055 L-1109.186,1916.953 L-1105.708,1916.953 L-1085.659,1957.055 L-1056.505,1957.055 L-1075.941,1916.953 L-1031.853,1916.953 L-1044.077,1957.055 L-1017.737,1957.055 L-1005.666,1917.054 L-999.836,1917.054 L-999.836,1916.953 L-991.55,1916.953 L-990.885,1916.953 L-941.12,1916.953 L-952.781,1956.953 L-926.185,1956.953 L-914.882,1916.953 L-902.914,1916.953 L-902.607,1956.953 L-880.308,1956.953 L-854.683,1916.953 L-837.907,1916.953 L-846.602,1956.953 L-820.415,1956.953 L-811.874,1916.953 L-796.735,1916.953 L-796.837,1919.231 L-796.783,1921.56 L-796.681,1923.788 L-796.476,1926.016 L-796.323,1927.079 L-796.17,1928.143 L-795.965,1929.206 L-795.761,1930.269 L-795.505,1931.333 L-795.25,1932.345 L-794.943,1933.358 L-794.637,1934.371 L-794.278,1935.383 L-793.92,1936.345 L-793.511,1937.307 L-793.102,1938.219 L-792.641,1939.181 L-792.18,1940.092 L-791.669,1940.953 L-791.157,1941.865 L-790.594,1942.725 L-789.981,1943.536 L-789.367,1944.396 L-788.702,1945.156 L-788.037,1945.966 L-787.372,1946.725 L-786.605,1947.485 L-785.838,1948.194 L-784.866,1949.004 L-783.894,1949.814 L-782.871,1950.574 L-781.797,1951.282 L-780.723,1951.991 L-779.649,1952.65 L-778.524,1953.206 L-777.348,1953.814 L-776.222,1954.32 L-775.046,1954.826 L-773.87,1955.282 L-772.642,1955.738 L-771.415,1956.144 L-770.187,1956.498 L-768.96,1956.852 L-767.732,1957.156 L-765.277,1957.713 L-762.771,1958.118 L-760.316,1958.472 L-757.861,1958.776 L-755.457,1958.979 L-753.104,1959.08 L-750.803,1959.182 L-748.603,1959.182 L-745.637,1959.134 L-742.67,1959.086 L-739.653,1958.934 L-736.635,1958.782 L-733.618,1958.528 L-730.6,1958.275 L-727.582,1957.971 L-724.565,1957.617 L-721.496,1957.211 L-718.427,1956.755 L-715.358,1956.249 L-712.29,1955.743 L-709.221,1955.186 L-706.152,1954.579 L-703.083,1953.971 L-699.964,1953.262 L-690.859,1916.958 L-660.99,1916.958 L-660.99,1766.575 L-768.55,1766.575 z M-1108.01,1913.206 L-1107.856,1912.649 L-1107.498,1913.206 L-1108.01,1913.206 z M-1014.31,1859.332 L-1015.844,1864.446 L-1030.165,1911.535 L-1030.728,1913.206 L-1077.782,1913.206 L-1081.414,1905.51 L-1030.728,1854.218 L-1063.308,1854.218 L-1102.946,1896.497 L-1090.109,1854.218 L-1114.147,1854.218 L-1114.147,1770.368 L-1014.31,1770.368 L-1014.31,1859.332 z M-986.538,1899.13 L-986.538,1899.13 L-987.305,1899.178 L-988.021,1899.226 L-988.788,1899.274 L-989.606,1899.274 L-990.681,1899.274 L-991.601,1899.274 L-992.471,1899.322 L-993.289,1899.322 L-999.682,1899.274 L-996.716,1888.438 L-995.335,1883.071 L-991.959,1870.463 L-990.885,1870.463 L-989.76,1870.463 L-988.686,1870.415 L-987.663,1870.415 L-982.702,1870.415 L-979.684,1870.463 L-976.922,1870.565 L-975.695,1870.613 L-974.518,1870.714 L-973.393,1870.866 L-972.37,1871.018 L-971.45,1871.17 L-970.58,1871.424 L-969.762,1871.677 L-969.046,1871.981 L-968.432,1872.285 L-967.869,1872.69 L-967.358,1873.095 L-966.949,1873.602 L-966.693,1874.007 L-966.489,1874.412 L-966.284,1874.868 L-966.131,1875.375 L-966.029,1875.931 L-965.975,1876.488 L-965.975,1877.096 L-965.975,1877.754 L-966.029,1878.463 L-966.077,1879.172 L-966.23,1879.982 L-966.384,1880.792 L-966.844,1882.513 L-967.407,1884.438 L-967.97,1886.058 L-968.583,1887.627 L-969.248,1889.096 L-969.964,1890.463 L-970.323,1891.071 L-970.681,1891.678 L-971.09,1892.286 L-971.551,1892.843 L-972.012,1893.399 L-972.472,1893.906 L-972.984,1894.412 L-973.495,1894.868 L-974.058,1895.273 L-974.621,1895.729 L-975.235,1896.083 L-975.9,1896.489 L-976.565,1896.843 L-977.281,1897.147 L-977.997,1897.451 L-978.764,1897.704 L-979.582,1898.008 L-980.452,1898.21 L-981.372,1898.413 L-982.293,1898.615 L-983.316,1898.767 L-984.339,1898.919 L-985.413,1899.021 L-986.538,1899.122 z M-913.808,1913.206 L-903.323,1876.243 L-902.914,1913.206 L-913.808,1913.206 z M-897.85,1854.066 L-922.81,1854.066 L-939.995,1913.206 L-966.488,1913.206 L-965.261,1912.7 L-964.033,1912.193 L-962.857,1911.687 L-961.681,1911.13 L-960.556,1910.574 L-959.481,1909.916 L-958.407,1909.308 L-957.384,1908.65 L-956.362,1907.941 L-955.39,1907.232 L-954.469,1906.523 L-953.548,1905.713 L-952.679,1904.953 L-951.861,1904.093 L-951.042,1903.282 L-950.275,1902.371 L-949.508,1901.51 L-948.792,1900.548 L-948.127,1899.637 L-947.462,1898.624 L-946.848,1897.611 L-946.286,1896.599 L-945.723,1895.536 L-945.211,1894.422 L-944.7,1893.308 L-944.239,1892.194 L-943.83,1891.029 L-943.421,1889.814 L-943.114,1888.599 L-942.756,1887.383 L-942.5,1886.067 L-942.245,1884.801 L-941.886,1882.776 L-941.58,1880.852 L-941.375,1879.029 L-941.222,1877.307 L-941.168,1875.586 L-941.222,1874.016 L-941.27,1872.446 L-941.474,1870.978 L-941.679,1869.611 L-942.037,1868.244 L-942.396,1866.978 L-942.907,1865.763 L-943.47,1864.598 L-944.084,1863.434 L-944.8,1862.37 L-945.618,1861.358 L-946.283,1860.649 L-946.948,1859.94 L-947.664,1859.332 L-948.431,1858.776 L-949.249,1858.219 L-950.068,1857.713 L-950.937,1857.257 L-951.807,1856.851 L-952.727,1856.446 L-953.648,1856.142 L-954.62,1855.838 L-955.592,1855.534 L-956.615,1855.281 L-957.637,1855.078 L-958.66,1854.876 L-959.734,1854.724 L-961.934,1854.42 L-964.133,1854.268 L-966.383,1854.116 L-968.685,1854.068 L-973.288,1854.068 L-977.84,1854.068 L-979.272,1854.068 L-981.83,1854.068 L-985.001,1854.068 L-988.53,1854.068 L-991.956,1854.068 L-994.872,1854.068 L-996.918,1854.068 L-997.685,1854.068 L-997.685,1770.37 L-897.848,1770.37 L-897.848,1854.068 z M-837.191,1913.206 L-852.177,1913.206 L-829.468,1877.762 L-837.191,1913.206 z M-781.391,1855.736 L-781.445,1876.243 L-782.724,1878.016 L-783.9,1879.838 L-785.076,1881.661 L-786.15,1883.484 L-787.173,1885.307 L-788.196,1887.18 L-789.066,1889.003 L-789.935,1890.826 L-790.753,1892.598 L-791.469,1894.421 L-792.186,1896.193 L-792.799,1897.915 L-793.362,1899.636 L-793.874,1901.307 L-794.334,1902.927 L-794.744,1904.548 L-794.999,1905.611 L-795.255,1906.725 L-795.51,1907.788 L-795.715,1908.902 L-795.919,1909.965 L-796.072,1911.029 L-796.226,1912.092 L-796.328,1913.206 L-811.007,1913.206 L-798.476,1854.218 L-840.723,1854.169 L-878.52,1913.209 L-881.282,1913.209 L-881.282,1770.37 L-781.393,1770.37 L-781.393,1855.739 z M-723.8,1937.358 L-725.897,1937.713 L-728.045,1938.017 L-730.194,1938.321 L-732.291,1938.574 L-734.388,1938.776 L-736.484,1938.928 L-738.53,1939.03 L-740.576,1939.03 L-741.906,1939.03 L-743.236,1938.982 L-744.514,1938.88 L-745.793,1938.728 L-747.021,1938.526 L-748.197,1938.323 L-749.373,1938.07 L-750.498,1937.766 L-751.573,1937.412 L-752.647,1937.057 L-753.67,1936.602 L-754.641,1936.146 L-755.613,1935.589 L-756.534,1935.032 L-757.403,1934.425 L-758.222,1933.817 L-759.04,1933.108 L-759.756,1932.349 L-760.472,1931.589 L-761.137,1930.729 L-761.751,1929.868 L-762.313,1928.906 L-762.825,1927.944 L-763.337,1926.931 L-763.746,1925.868 L-764.104,1924.703 L-764.411,1923.539 L-764.718,1922.323 L-764.922,1921.057 L-765.076,1919.741 L-765.178,1918.374 L-765.232,1916.956 L-718.689,1916.956 L-723.804,1937.362 z M-664.778,1913.206 L-689.942,1913.206 L-685.799,1896.699 L-736.229,1896.699 L-740.372,1913.206 L-764.768,1913.206 L-764.768,1909.814 L-764.462,1908.396 L-764.206,1906.978 L-763.899,1905.459 L-763.593,1903.94 L-763.132,1902.269 L-762.672,1900.598 L-762.16,1898.927 L-761.597,1897.307 L-760.984,1895.687 L-760.319,1894.066 L-759.603,1892.497 L-758.887,1890.927 L-758.068,1889.357 L-757.25,1887.889 L-756.38,1886.37 L-755.409,1884.952 L-754.437,1883.535 L-753.465,1882.167 L-752.391,1880.851 L-751.266,1879.585 L-750.089,1878.37 L-748.913,1877.256 L-747.634,1876.142 L-746.356,1875.079 L-745.026,1874.117 L-743.594,1873.205 L-742.162,1872.395 L-740.679,1871.636 L-739.144,1870.927 L-737.559,1870.319 L-735.922,1869.813 L-734.234,1869.407 L-732.495,1869.053 L-730.705,1868.8 L-728.864,1868.648 L-726.971,1868.6 L-725.488,1868.648 L-724.005,1868.749 L-722.522,1868.952 L-721.09,1869.255 L-720.374,1869.458 L-719.709,1869.66 L-719.044,1869.863 L-718.43,1870.167 L-717.816,1870.42 L-717.203,1870.774 L-716.64,1871.129 L-716.077,1871.483 L-715.565,1871.939 L-715.054,1872.395 L-714.593,1872.85 L-714.133,1873.407 L-713.723,1873.913 L-713.365,1874.521 L-713.058,1875.179 L-712.752,1875.838 L-712.496,1876.546 L-712.292,1877.306 L-712.138,1878.065 L-711.985,1878.926 L-711.931,1879.787 L-711.931,1880.698 L-711.931,1881.66 L-712.033,1882.673 L-681.959,1882.673 L-681.499,1880.597 L-681.089,1878.217 L-680.885,1876.951 L-680.783,1875.584 L-680.68,1874.217 L-680.68,1872.799 L-680.728,1871.331 L-680.882,1869.812 L-681.035,1869.103 L-681.137,1868.344 L-681.342,1867.584 L-681.546,1866.825 L-681.802,1866.015 L-682.057,1865.255 L-682.364,1864.496 L-682.722,1863.736 L-683.08,1862.976 L-683.541,1862.217 L-684.002,1861.458 L-684.513,1860.698 L-685.127,1859.888 L-685.792,1859.128 L-686.457,1858.369 L-687.173,1857.66 L-687.94,1856.951 L-688.758,1856.293 L-689.577,1855.685 L-690.446,1855.078 L-691.367,1854.47 L-692.287,1853.964 L-693.259,1853.458 L-694.282,1852.951 L-695.305,1852.495 L-696.379,1852.04 L-697.504,1851.634 L-698.63,1851.229 L-699.755,1850.875 L-700.982,1850.571 L-702.159,1850.267 L-703.437,1849.963 L-704.716,1849.709 L-705.995,1849.456 L-707.324,1849.254 L-708.705,1849.102 L-711.518,1848.798 L-714.383,1848.544 L-717.4,1848.443 L-720.469,1848.395 L-722.771,1848.443 L-725.174,1848.491 L-727.681,1848.643 L-730.289,1848.845 L-733,1849.149 L-735.762,1849.503 L-738.575,1849.959 L-741.439,1850.567 L-742.871,1850.871 L-744.354,1851.225 L-745.786,1851.63 L-747.269,1852.036 L-748.753,1852.492 L-750.236,1852.998 L-751.719,1853.504 L-753.151,1854.061 L-754.634,1854.668 L-756.118,1855.327 L-757.55,1855.985 L-759.033,1856.694 L-760.465,1857.453 L-761.897,1858.263 L-763.329,1859.074 L-764.761,1859.985 L-764.761,1770.363 L-664.771,1770.363 L-664.771,1913.201 z" fill="#FFFFFF" id="path5037"/>
  </g>
</svg>
