<?xml version="1.0" encoding="UTF-8"?>
<!DOCTYPE svg PUBLIC "-//W3C//DTD SVG 1.1//EN" "http://www.w3.org/Graphics/SVG/1.1/DTD/svg11.dtd">
<svg version="1.1" xmlns="http://www.w3.org/2000/svg" xmlns:xlink="http://www.w3.org/1999/xlink" x="0" y="0" width="2679.147" height="412.194" viewBox="0, 0, 2679.147, 412.194">
  <g id="Layer_1" transform="translate(-188.389, -477.094)">
    <path d="M1365.885,567.52 L1364.049,567.52 L1339.262,618.47 L1273.623,739.65 L1207.984,618.47 L1183.198,567.52 L1181.361,567.52 L1181.361,797.486 L1123.985,797.486 L1123.985,477.094 L1192.378,477.094 L1274.541,633.618 L1276.377,633.618 L1357.623,477.094 L1423.262,477.094 L1423.262,797.486 L1365.885,797.486 z" fill="#EEEEEE"/>
    <path d="M1625.915,797.485 Q1606.636,797.485 1595.39,786.24 Q1584.144,774.994 1581.39,756.174 L1578.636,756.174 Q1572.669,779.584 1554.308,791.289 Q1535.948,802.993 1508.866,802.993 Q1472.145,802.993 1452.407,783.715 Q1432.67,764.436 1432.67,732.305 Q1432.67,695.125 1459.292,676.994 Q1485.915,658.863 1535.03,658.863 L1575.882,658.863 L1575.882,641.421 Q1575.882,621.224 1565.325,610.208 Q1554.767,599.191 1531.358,599.191 Q1510.702,599.191 1498.079,608.142 Q1485.456,617.093 1476.735,629.486 L1441.85,598.273 Q1455.161,577.618 1477.194,564.995 Q1499.227,552.372 1535.489,552.372 Q1584.144,552.372 1609.39,574.405 Q1634.636,596.437 1634.636,637.749 L1634.636,750.666 L1658.505,750.666 L1658.505,797.485 z M1528.604,760.305 Q1548.341,760.305 1562.112,751.584 Q1575.882,742.863 1575.882,725.879 L1575.882,694.207 L1538.243,694.207 Q1492.341,694.207 1492.341,723.584 L1492.341,731.387 Q1492.341,746.076 1501.751,753.19 Q1511.161,760.305 1528.604,760.305 z" fill="#EEEEEE"/>
    <path d="M1829.944,757.552 L1827.649,757.552 Q1821.223,778.207 1803.322,790.601 Q1785.42,802.994 1761.551,802.994 Q1716.109,802.994 1692.011,770.404 Q1667.912,737.814 1667.912,677.224 Q1667.912,617.093 1692.011,584.733 Q1716.109,552.372 1761.551,552.372 Q1785.42,552.372 1803.322,564.536 Q1821.223,576.7 1827.649,597.356 L1829.944,597.356 L1829.944,557.88 L1888.698,557.88 L1888.698,889.288 L1829.944,889.288 z M1780.371,754.338 Q1801.485,754.338 1815.715,744.24 Q1829.944,734.142 1829.944,715.322 L1829.944,639.126 Q1829.944,621.683 1815.715,611.126 Q1801.485,600.569 1780.371,600.569 Q1757.42,600.569 1743.42,615.946 Q1729.42,631.323 1729.42,657.027 L1729.42,698.339 Q1729.42,724.044 1743.42,739.191 Q1757.42,754.338 1780.371,754.338 z" fill="#EEEEEE"/>
    <path d="M2044.073,757.551 L2041.777,757.551 Q2038.564,766.731 2033.286,774.764 Q2028.007,782.797 2019.974,789.223 Q2011.942,795.649 2000.696,799.321 Q1989.45,802.993 1974.761,802.993 Q1937.581,802.993 1917.844,778.666 Q1898.106,754.338 1898.106,709.355 L1898.106,557.88 L1956.86,557.88 L1956.86,703.387 Q1956.86,728.174 1966.499,741.256 Q1976.138,754.338 1997.253,754.338 Q2005.974,754.338 2014.466,752.043 Q2022.958,749.748 2029.384,744.928 Q2035.81,740.109 2039.941,732.994 Q2044.073,725.879 2044.073,716.24 L2044.073,557.88 L2102.826,557.88 L2102.826,797.485 L2044.073,797.485 z" fill="#EEEEEE"/>
    <path d="M2225.152,802.993 Q2198.529,802.993 2177.644,794.043 Q2156.759,785.092 2142.3,768.797 Q2127.841,752.502 2120.037,729.322 Q2112.234,706.142 2112.234,677.224 Q2112.234,648.765 2119.808,625.814 Q2127.382,602.863 2141.611,586.568 Q2155.841,570.273 2176.496,561.323 Q2197.152,552.372 2223.315,552.372 Q2251.315,552.372 2271.971,562.011 Q2292.627,571.651 2305.938,588.175 Q2319.25,604.7 2325.905,626.503 Q2332.561,648.306 2332.561,673.093 L2332.561,692.371 L2173.283,692.371 L2173.283,698.338 Q2173.283,724.502 2187.971,740.338 Q2202.66,756.174 2231.578,756.174 Q2253.61,756.174 2267.61,746.994 Q2281.61,737.814 2292.627,723.584 L2324.299,758.928 Q2309.61,779.584 2284.135,791.289 Q2258.66,802.993 2225.152,802.993 z M2224.234,596.437 Q2200.824,596.437 2187.053,612.044 Q2173.283,627.65 2173.283,652.437 L2173.283,656.109 L2271.512,656.109 L2271.512,651.978 Q2271.512,627.191 2259.348,611.814 Q2247.184,596.437 2224.234,596.437 z" fill="#EEEEEE"/>
    <path d="M2439.28,797.486 Q2408.985,797.486 2393.149,781.65 Q2377.313,765.814 2377.313,736.437 L2377.313,604.7 L2341.969,604.7 L2341.969,557.881 L2360.329,557.881 Q2373.641,557.881 2378.46,551.684 Q2383.28,545.487 2383.28,533.094 L2383.28,492.242 L2436.067,492.242 L2436.067,557.881 L2485.181,557.881 L2485.181,604.7 L2436.067,604.7 L2436.067,750.666 L2481.509,750.666 L2481.509,797.486 z" fill="#EEEEEE"/>
    <path d="M2591.9,797.486 Q2561.605,797.486 2545.769,781.65 Q2529.933,765.814 2529.933,736.437 L2529.933,604.7 L2494.589,604.7 L2494.589,557.881 L2512.949,557.881 Q2526.261,557.881 2531.081,551.684 Q2535.9,545.487 2535.9,533.094 L2535.9,492.242 L2588.687,492.242 L2588.687,557.881 L2637.801,557.881 L2637.801,604.7 L2588.687,604.7 L2588.687,750.666 L2634.129,750.666 L2634.129,797.486 z" fill="#EEEEEE"/>
    <path d="M2760.127,805.747 Q2733.504,805.747 2712.619,796.797 Q2691.734,787.846 2677.275,771.551 Q2662.816,755.256 2655.012,732.076 Q2647.209,708.896 2647.209,679.978 Q2647.209,651.519 2654.783,628.568 Q2662.357,605.617 2676.586,589.323 Q2690.815,573.028 2711.471,564.077 Q2732.127,555.126 2758.291,555.126 Q2786.29,555.126 2806.946,564.765 Q2827.602,574.405 2840.913,590.929 Q2854.224,607.454 2860.88,629.257 Q2867.536,651.06 2867.536,675.847 L2867.536,695.125 L2708.258,695.125 L2708.258,701.092 Q2708.258,727.256 2722.947,743.092 Q2737.635,758.928 2766.553,758.928 Q2788.585,758.928 2802.585,749.748 Q2816.585,740.568 2827.602,726.338 L2859.274,761.682 Q2844.585,782.338 2819.11,794.043 Q2793.635,805.747 2760.127,805.747 z M2759.208,599.191 Q2735.799,599.191 2722.029,614.798 Q2708.258,630.404 2708.258,655.191 L2708.258,658.863 L2806.487,658.863 L2806.487,654.732 Q2806.487,629.945 2794.323,614.568 Q2782.159,599.191 2759.208,599.191 z" fill="#EEEEEE"/>
    <g>
      <path d="M943.274,684.033 L967.003,713.15 L1004.129,718.629 C975.851,771.096 920.627,802.246 861.599,802.993 C846.72,802.645 831.71,801.117 817.378,796.923 L816.059,759.545 L840.799,730.459 C847.605,732.142 854.605,732.825 861.598,732.997 C895.628,733.076 927.106,713.796 943.274,684.033 z" fill="#EEEEEE" fill-opacity="0.4"/>
      <path d="M865.795,477.823 C903.326,479.073 939.201,493.312 967.739,517.569 L953.365,551.361 L918.481,567.298 C902.206,554.537 882.185,548.026 861.599,547.766 L861.598,547.766 L861.598,547.766 L861.598,547.766 C842.009,547.831 823.066,554.041 807.237,565.523 L798.54,528.669 L767.719,507.782 C794.875,488.064 828.42,479.014 861.598,477.77 L865.795,477.823 z" fill="#EEEEEE" fill-opacity="0.4"/>
      <path d="M443.573,637.31 L479.687,651.315 L513.716,638.096 L513.696,639.706 C513.727,675.593 535.54,710.329 568.896,724.435 L571.064,763.261 L548.002,791.528 C520.583,781.45 497.336,762.518 478.656,740.431 C460.584,763.51 437.041,779.821 410.166,790.985 L387.458,763.151 L389.651,723.882 C422.769,708.411 443.155,676.142 443.616,639.706 L443.573,637.31 z" fill="#EEEEEE" fill-opacity="0.4"/>
      <path d="M973.253,522.565 C1005.986,552.812 1023.128,596.301 1024.21,640.382 C1024.339,665.261 1018.335,689.683 1007.567,712.031 L970.706,706.578 L946.644,677.052 C951.775,665.505 954.055,652.968 954.214,640.382 C954.168,614.776 943.384,589.597 924.379,572.324 L958.789,556.604 L973.253,522.565 z" fill="#EEEEEE" fill-opacity="0.4"/>
      <path d="M282.91,702.45 C300.189,721.68 325.377,731.997 351.001,732.321 C361.705,732.309 372.397,730.497 382.454,726.815 L380.293,765.511 L403.144,793.5 C386.406,799.425 368.683,801.86 351.001,802.318 C302.737,802.346 256.286,780.348 225.59,743.152 L245.43,712.355 L282.91,702.45 z" fill="#EEEEEE" fill-opacity="0.4"/>
      <path d="M213.977,552.11 L249.851,561.582 L270.581,593.743 C262.487,607.751 258.589,623.592 258.385,639.706 C258.288,660.588 265.449,679.917 277.865,696.52 L240.972,706.27 L220.988,737.314 C199.524,709.335 188.833,674.757 188.389,639.706 C188.624,606.694 196.936,580.156 213.977,552.11 z" fill="#EEEEEE" fill-opacity="0.4"/>
      <path d="M355.101,477.165 C364.683,477.356 374.186,478.61 383.59,480.383 C389.575,481.59 389.581,481.594 392.552,482.463 L394.611,519.195 L370.214,549.113 C363.911,547.677 357.45,547.172 351.001,547.09 L351,547.09 C320.928,547.131 291.626,562.18 274.721,587.204 L254.261,555.462 L218.142,545.938 C248.013,502.236 298.69,477.756 351,477.094 L355.101,477.165 z" fill="#EEEEEE" fill-opacity="0.4"/>
      <path d="M638.189,726.64 L668.129,753.85 L671.348,788.362 C650.889,797.457 628.578,801.483 606.312,802.317 C589.006,802.013 571.421,799.864 555.034,794.031 L578.229,765.62 L576.087,727.265 C585.772,730.748 596.058,732.191 606.312,732.321 C614.848,732.294 623.368,731.126 631.584,728.798 C633.813,728.167 635.987,727.359 638.189,726.64 z" fill="#EEEEEE" fill-opacity="0.4"/>
      <path d="M761.826,512.139 L792.253,532.948 L801.119,570.426 C788.481,581.076 779.727,595.443 773.836,610.721 C768.659,582.659 756.791,556.09 738.871,533.845 C745.867,525.993 753.345,518.409 761.826,512.139 z" fill="#EEEEEE" fill-opacity="0.4"/>
      <path d="M693.908,669.829 C698.722,698.031 711.197,724.156 728.701,746.62 C714.77,763.073 697.199,775.539 678.123,785.289 L674.891,750.506 L645.333,723.643 C668.295,712.852 684.839,693.268 693.908,669.829 z" fill="#EEEEEE" fill-opacity="0.4"/>
      <path d="M558.777,484.435 L556.68,521.603 L580.562,550.89 C544.619,561.133 518.38,593.56 514.19,630.371 L479.657,643.772 L443.032,629.569 C439.785,592.61 412.04,562.469 377.715,551.027 L401.795,521.498 L399.71,484.557 C431.089,493.804 457.773,514.289 478.656,538.98 C499.223,513.462 527.154,493.626 558.777,484.435 z" fill="#EEEEEE" fill-opacity="0.4"/>
    </g>
    <path d="M606.138,477.803 C611.848,477.876 608.938,477.786 614.869,478.086 L619.515,478.365 L623.506,478.77 L628.25,479.324 L632.474,479.969 L636.726,480.712 L641.088,481.604 L645.202,482.569 L649.26,483.613 L654.34,485.118 L657.039,485.957 C686.081,495.398 709.778,513.334 730.328,535.489 C755.37,564.756 768.266,602.107 768.75,640.415 L768.707,643.769 L769.064,643.769 C770.562,681.932 796.553,717.104 833.351,728.378 L808.925,757.095 L810.268,794.753 C787.661,787.479 767.888,774.05 750.201,758.48 L749.769,758.072 L745.01,753.348 L740.588,748.664 L740.422,748.483 C715.106,719.523 699.345,682.402 698.851,643.677 C698.937,641.977 698.893,643.075 698.927,640.382 C698.927,589.232 657.462,547.767 606.312,547.767 L606.312,547.767 C600.751,547.884 599.999,547.793 593.298,548.675 C591.544,548.906 589.823,549.346 588.086,549.681 L563.863,519.977 L565.932,483.077 C578.312,479.761 591.102,478.321 603.885,477.859 L606.138,477.803 L606.138,477.803 z" fill="#EEEEEE"/>
  </g>
</svg>
