<?xml version="1.0" encoding="UTF-8"?>
<!DOCTYPE svg PUBLIC "-//W3C//DTD SVG 1.1//EN" "http://www.w3.org/Graphics/SVG/1.1/DTD/svg11.dtd">
<svg version="1.1" xmlns="http://www.w3.org/2000/svg" xmlns:xlink="http://www.w3.org/1999/xlink" x="0" y="0" width="1807.473" height="704.759" viewBox="0, 0, 1807.473, 704.759">
  <g id="Layer_1" transform="translate(-165.778, -1180.72)">
    <g>
      <path d="M1798.22,1628.225 L1849.536,1691.191 L1929.821,1703.041 C1868.668,1816.5 1749.246,1883.863 1621.597,1885.479 C1589.422,1884.725 1556.963,1881.421 1525.971,1872.352 L1523.118,1791.522 L1576.619,1728.622 C1591.336,1732.262 1606.474,1733.74 1621.597,1734.111 C1695.187,1734.281 1763.257,1692.589 1798.22,1628.225 z" fill="#FFFFFF" fill-opacity="0.4"/>
      <path d="M1630.673,1182.296 C1711.833,1184.998 1789.413,1215.791 1851.126,1268.247 L1820.044,1341.322 L1744.606,1375.785 C1709.412,1348.19 1666.117,1334.111 1621.597,1333.548 L1621.597,1333.548 L1621.597,1333.549 L1621.597,1333.549 C1579.234,1333.687 1538.271,1347.117 1504.041,1371.949 L1485.232,1292.251 L1418.583,1247.082 C1477.308,1204.441 1549.848,1184.872 1621.597,1182.181 L1630.673,1182.296 z" fill="#FFFFFF" fill-opacity="0.4"/>
      <path d="M717.614,1527.188 L795.711,1557.473 L869.3,1528.887 L869.256,1532.368 C869.324,1609.975 916.495,1685.092 988.626,1715.596 L993.314,1799.557 L943.443,1860.685 C884.15,1838.891 833.877,1797.95 793.482,1750.188 C754.402,1800.096 703.49,1835.369 645.372,1859.51 L596.266,1799.32 L601.008,1714.399 C672.626,1680.944 716.712,1611.162 717.708,1532.368 L717.614,1527.188 z" fill="#FFFFFF" fill-opacity="0.4"/>
      <path d="M1863.052,1279.051 C1933.836,1344.461 1970.905,1438.504 1973.246,1533.83 C1973.524,1587.63 1960.541,1640.444 1937.255,1688.772 L1857.544,1676.979 L1805.508,1613.129 C1816.605,1588.159 1821.534,1561.047 1821.879,1533.83 C1821.779,1478.458 1798.459,1424.007 1757.361,1386.654 L1831.773,1352.66 L1863.052,1279.051 z" fill="#FFFFFF" fill-opacity="0.4"/>
      <path d="M370.179,1668.053 C407.546,1709.639 462.016,1731.948 517.426,1732.65 C540.575,1732.624 563.696,1728.704 585.444,1720.742 L580.771,1804.422 L630.187,1864.949 C593.99,1877.761 555.665,1883.027 517.426,1884.017 C413.055,1884.079 312.606,1836.508 246.226,1756.071 L289.13,1689.474 L370.179,1668.053 z" fill="#FFFFFF" fill-opacity="0.4"/>
      <path d="M221.111,1342.941 L298.69,1363.425 L343.518,1432.974 C326.016,1463.265 317.586,1497.523 317.145,1532.368 C316.934,1577.526 332.42,1619.324 359.271,1655.229 L279.489,1676.314 L236.274,1743.446 C189.858,1682.941 166.737,1608.167 165.778,1532.368 C166.287,1460.981 184.26,1403.592 221.111,1342.941 z" fill="#FFFFFF" fill-opacity="0.4"/>
      <path d="M526.293,1180.872 C547.015,1181.286 567.565,1183.998 587.902,1187.832 C600.844,1190.442 600.858,1190.45 607.281,1192.33 L611.734,1271.763 L558.975,1336.462 C545.345,1333.355 531.374,1332.263 517.427,1332.087 L517.426,1332.087 C452.395,1332.175 389.028,1364.718 352.471,1418.833 L308.226,1350.19 L230.12,1329.596 C294.716,1235.089 404.304,1182.15 517.426,1180.72 L526.293,1180.872 z" fill="#FFFFFF" fill-opacity="0.4"/>
      <path d="M1138.473,1720.364 L1203.218,1779.206 L1210.181,1853.839 C1165.937,1873.505 1117.688,1882.213 1069.538,1884.017 C1032.115,1883.358 994.087,1878.711 958.649,1866.097 L1008.809,1804.659 L1004.177,1721.715 C1025.121,1729.247 1047.364,1732.369 1069.538,1732.65 C1087.998,1732.591 1106.422,1730.065 1124.19,1725.032 C1129.009,1723.666 1133.712,1721.92 1138.473,1720.364 z" fill="#FFFFFF" fill-opacity="0.4"/>
      <path d="M1405.838,1256.505 L1471.637,1301.503 L1490.81,1382.551 C1463.479,1405.581 1444.549,1436.65 1431.81,1469.688 C1420.616,1409.004 1394.95,1351.549 1356.2,1303.443 C1371.328,1286.464 1387.498,1270.063 1405.838,1256.505 z" fill="#FFFFFF" fill-opacity="0.4"/>
      <path d="M1258.965,1597.509 C1269.376,1658.498 1296.354,1714.992 1334.206,1763.572 C1304.079,1799.15 1266.083,1826.109 1224.831,1847.192 L1217.841,1771.975 L1153.922,1713.884 C1203.578,1690.547 1239.353,1648.197 1258.965,1597.509 z" fill="#FFFFFF" fill-opacity="0.4"/>
      <path d="M966.744,1196.593 L962.209,1276.971 L1013.854,1340.303 C936.128,1362.455 879.386,1432.577 870.325,1512.181 L795.647,1541.161 L716.445,1510.447 C709.423,1430.523 649.424,1365.343 575.197,1340.599 L627.269,1276.743 L622.762,1196.859 C690.618,1216.854 748.323,1261.153 793.482,1314.548 C837.958,1259.366 898.359,1216.471 966.744,1196.593 z" fill="#FFFFFF" fill-opacity="0.4"/>
    </g>
    <path d="M1069.163,1182.253 C1081.511,1182.409 1075.218,1182.215 1088.044,1182.865 L1098.089,1183.469 L1106.721,1184.345 L1116.98,1185.541 L1126.113,1186.937 L1135.309,1188.543 L1144.741,1190.473 L1153.64,1192.56 L1162.414,1194.817 L1173.401,1198.072 L1179.237,1199.887 C1242.041,1220.303 1293.286,1259.088 1337.724,1307 C1391.878,1370.288 1419.764,1451.061 1420.812,1533.902 L1420.72,1541.155 L1421.491,1541.155 C1424.731,1623.682 1480.937,1699.742 1560.511,1724.123 L1507.691,1786.223 L1510.594,1867.66 C1461.708,1851.93 1418.948,1822.888 1380.699,1789.219 L1379.765,1788.337 L1369.475,1778.121 L1359.911,1767.991 L1359.554,1767.599 C1304.806,1704.974 1270.723,1624.7 1269.656,1540.956 C1269.842,1537.28 1269.746,1539.653 1269.82,1533.831 C1269.82,1423.219 1180.151,1333.55 1069.539,1333.55 L1069.538,1333.55 C1057.513,1333.804 1055.888,1333.607 1041.397,1335.514 C1037.603,1336.013 1033.882,1336.964 1030.125,1337.689 L977.744,1273.455 L982.218,1193.659 C1008.988,1186.488 1036.648,1183.373 1064.29,1182.373 L1069.163,1182.253 L1069.163,1182.253 z" fill="#FFFFFF"/>
  </g>
</svg>
