<?xml version="1.0" encoding="UTF-8"?>
<!DOCTYPE svg PUBLIC "-//W3C//DTD SVG 1.1//EN" "http://www.w3.org/Graphics/SVG/1.1/DTD/svg11.dtd">
<svg version="1.1" xmlns="http://www.w3.org/2000/svg" xmlns:xlink="http://www.w3.org/1999/xlink" x="0" y="0" width="29.28" height="32" viewBox="0, 0, 73.2, 80">
  <g id="Elasticsearch_1_" transform="translate(-9.8, -4.5)">
    <g>
      <path d="M64.8,32.5 L43.9,32.5 C44,33 44.2,33.5 44.3,33.9 C45,36.3 45.4,38.8 45.6,41.4 C45.7,42.4 45.7,43.5 45.7,44.5 C45.7,45.5 45.7,46.6 45.6,47.6 C45.4,50.2 45,52.7 44.3,55.1 C44.2,55.6 44,56.1 43.9,56.5 L64.8,56.5 C71.4,56.5 76.7,51.1 76.7,44.5 C76.7,37.9 71.4,32.5 64.8,32.5 z" fill="#00A9E5"/>
      <path d="M45.6,47.6 C45.7,46.6 45.7,45.5 45.7,44.5 C45.7,43.5 45.7,42.4 45.6,41.4 C45.4,38.8 45,36.3 44.3,33.9 C44.2,33.4 44,32.9 43.9,32.5 L11.6,32.5 C10.4,36.3 9.8,40.3 9.8,44.5 C9.8,48.7 10.4,52.7 11.6,56.5 L43.9,56.5 C44,56 44.2,55.5 44.3,55.1 C45,52.7 45.4,50.2 45.6,47.6 z" fill="#353535"/>
    </g>
    <g>
      <path d="M68.4,60.5 L42.4,60.5 C41.6,62.3 40.7,64 39.7,65.6 C38.2,68.1 36.4,70.3 34.4,72.4 C33.7,73.1 33,73.7 32.3,74.4 C30.9,75.7 29.3,76.8 27.7,77.9 C34,82.1 41.6,84.5 49.7,84.5 C63.6,84.5 75.8,77.4 83,66.7 C79.3,62.9 74.1,60.5 68.4,60.5 z" fill="#00BFB3"/>
      <path d="M39.7,65.6 C40.7,64 41.6,62.3 42.4,60.5 L13.1,60.5 C16.2,67.6 21.3,73.7 27.8,77.9 C29.4,76.8 30.9,75.7 32.4,74.4 C33.1,73.8 33.8,73.1 34.5,72.4 C36.4,70.4 38.2,68.1 39.7,65.6 z" fill="#019B8F"/>
    </g>
    <g>
      <path d="M34.4,16.6 C33.7,15.9 33,15.3 32.3,14.6 C30.9,13.3 29.3,12.2 27.7,11.1 C21.3,15.3 16.2,21.4 13,28.5 L42.3,28.5 C41.5,26.7 40.6,25 39.6,23.4 C38.2,20.9 36.4,18.6 34.4,16.6 z" fill="#F9B110"/>
      <path d="M49.7,4.5 C41.6,4.5 34,6.9 27.7,11.1 C29.3,12.2 30.8,13.3 32.3,14.6 C33,15.2 33.7,15.9 34.4,16.6 C36.4,18.7 38.2,20.9 39.7,23.4 C40.7,25 41.6,26.7 42.4,28.5 L68.4,28.5 C74.1,28.5 79.3,26.1 83,22.3 C75.8,11.6 63.6,4.5 49.7,4.5 z" fill="#FED10A"/>
    </g>
  </g>
</svg>
