<?xml version="1.0" encoding="UTF-8"?>
<!DOCTYPE svg PUBLIC "-//W3C//DTD SVG 1.1//EN" "http://www.w3.org/Graphics/SVG/1.1/DTD/svg11.dtd">
<svg version="1.1" xmlns="http://www.w3.org/2000/svg" xmlns:xlink="http://www.w3.org/1999/xlink" x="0" y="0" width="555.129" height="628.836" viewBox="0, 0, 555.129, 628.836">
  <g id="Layer_1" transform="translate(-0, -2.138)">
    <path d="M528.933,287.534 C528.933,433.6 410.537,551.988 264.467,551.988 C118.396,551.988 0,433.6 0,287.534 C0,141.473 118.396,23.082 264.467,23.082 C410.537,22.954 528.931,141.471 528.931,287.534" fill="#008CC1"/>
    <path d="M117.242,200.792 C117.242,212.453 107.761,221.934 96.101,221.934 C84.439,221.934 74.958,212.456 74.958,200.792 C74.958,189.133 84.437,179.652 96.101,179.652 C101.713,179.636 107.1,181.858 111.068,185.826 C115.036,189.794 117.258,195.181 117.242,200.792 M120.829,258.835 C120.829,270.494 111.348,279.977 99.688,279.977 C88.029,279.977 78.545,270.494 78.545,258.835 C78.545,247.174 88.029,237.696 99.688,237.696 C105.3,237.679 110.687,239.901 114.655,243.869 C118.623,247.837 120.845,253.224 120.829,258.835 M133.772,320.337 C133.772,331.996 124.288,341.477 112.629,341.477 C100.969,341.477 91.486,331.996 91.486,320.337 C91.486,308.674 100.969,299.195 112.629,299.195 C124.288,299.067 133.769,308.548 133.769,320.337 M162.73,375.43 C162.73,387.09 153.245,396.572 141.585,396.572 C129.926,396.572 120.444,387.09 120.444,375.43 C120.444,363.769 129.926,354.291 141.585,354.291 C153.245,354.16 162.728,363.643 162.728,375.43 M389.14,452.435 C389.14,464.094 379.658,473.575 367.997,473.575 C356.337,473.575 346.856,464.094 346.856,452.435 C346.856,440.776 356.335,431.293 367.997,431.293 C379.658,431.293 389.14,440.776 389.14,452.435 M427.577,406.949 C427.577,418.608 418.098,428.089 406.434,428.089 C394.775,428.089 385.294,418.61 385.294,406.949 C385.294,395.29 394.775,385.807 406.434,385.807 C418.098,385.807 427.58,395.29 427.58,406.949 M316.103,85.351 C316.103,97.011 306.62,106.491 294.96,106.491 C283.301,106.491 273.82,97.013 273.82,85.351 C273.82,73.692 283.301,64.212 294.96,64.212 C306.62,64.212 316.103,73.69 316.103,85.351 M260.495,65.877 C260.495,77.536 251.011,87.017 239.352,87.017 C227.692,87.017 218.211,77.538 218.211,65.877 C218.211,54.218 227.69,44.735 239.352,44.735 C251.011,44.735 260.495,54.218 260.495,65.877" fill="#FFFFFF"/>
    <path d="M410.409,83.558 C488.25,83.558 551.355,146.66 551.355,224.497 C551.355,302.335 488.25,365.437 410.409,365.437 C332.566,365.437 269.463,302.335 269.463,224.497 C269.463,146.66 332.566,83.558 410.409,83.558" fill="#66B245"/>
    <path d="M410.409,369.211 C330.609,369.211 265.686,304.291 265.686,224.497 C265.686,144.701 330.609,79.784 410.409,79.784 C490.206,79.784 555.129,144.699 555.129,224.497 C555.129,304.291 490.206,369.211 410.409,369.211 z M410.409,87.332 C334.772,87.332 273.237,148.867 273.237,224.497 C273.237,300.13 334.772,361.66 410.409,361.66 C486.045,361.66 547.578,300.13 547.578,224.497 C547.578,148.864 486.045,87.334 410.409,87.334 z" fill="#FFFFFF"/>
    <path d="M217.313,396.572 C281.001,396.572 332.633,448.198 332.633,511.885 C332.633,575.569 281.001,627.199 217.313,627.199 C153.623,627.199 101.993,575.569 101.993,511.885 C101.993,448.198 153.623,396.572 217.313,396.572" fill="#66B245"/>
    <path d="M217.313,630.973 C151.643,630.973 98.219,577.55 98.219,511.885 C98.219,446.217 151.643,392.796 217.315,392.796 C282.983,392.796 336.407,446.217 336.407,511.887 C336.407,577.55 282.983,630.973 217.313,630.973 z M217.313,400.346 C155.808,400.346 105.769,450.381 105.769,511.885 C105.769,573.387 155.808,623.423 217.313,623.423 C278.818,623.423 328.857,573.387 328.857,511.885 C328.857,450.383 278.818,400.346 217.313,400.346 z" fill="#FFFFFF"/>
    <path d="M122.366,5.912 C164.826,5.912 199.246,40.333 199.246,82.788 C199.246,125.246 164.826,159.665 122.366,159.665 C79.906,159.665 45.488,125.246 45.488,82.788 C45.488,40.33 79.909,5.912 122.366,5.912" fill="#66B245"/>
    <path d="M122.366,163.439 C77.893,163.439 41.712,127.259 41.712,82.788 C41.712,38.317 77.893,2.138 122.366,2.138 C166.839,2.138 203.02,38.317 203.02,82.788 C203.02,127.259 166.839,163.439 122.366,163.439 z M122.366,9.688 C82.059,9.688 49.263,42.481 49.263,82.788 C49.263,123.096 82.057,155.891 122.366,155.891 C162.676,155.891 195.472,123.096 195.472,82.788 C195.472,42.483 162.676,9.688 122.366,9.688 z" fill="#FFFFFF"/>
  </g>
</svg>
