<?xml version="1.0" encoding="UTF-8"?>
<!DOCTYPE svg PUBLIC "-//W3C//DTD SVG 1.1//EN" "http://www.w3.org/Graphics/SVG/1.1/DTD/svg11.dtd">
<svg version="1.1" xmlns="http://www.w3.org/2000/svg" xmlns:xlink="http://www.w3.org/1999/xlink" x="0" y="0" width="110.421" height="109.846" viewBox="0, 0, 110.421, 109.846">
  <defs>
    <linearGradient id="Gradient_1" gradientUnits="userSpaceOnUse" x1="52.571" y1="74.376" x2="91.848" y2="113.784" gradientTransform="matrix(1, 0, 0, 1, -44.938, -67.469)">
      <stop offset="0" stop-color="#387EB8"/>
      <stop offset="1" stop-color="#366994"/>
    </linearGradient>
    <linearGradient id="Gradient_2" gradientUnits="userSpaceOnUse" x1="76.733" y1="99.445" x2="118.916" y2="139.859" gradientTransform="matrix(1, 0, 0, 1, -44.938, -67.469)">
      <stop offset="0" stop-color="#FFE052"/>
      <stop offset="1" stop-color="#FFC331"/>
    </linearGradient>
  </defs>
  <g id="Calque_1" transform="translate(-0, -0)">
    <path d="M39.43,0 C19.265,0 20.524,8.745 20.524,8.745 L20.547,17.804 L39.789,17.804 L39.789,20.524 L12.903,20.524 C12.903,20.524 0,19.061 0,39.407 C-0,59.754 11.262,59.032 11.262,59.032 L17.984,59.032 L17.984,49.591 C17.984,49.591 17.622,38.328 29.066,38.328 C40.511,38.328 48.152,38.328 48.152,38.328 C48.152,38.328 58.875,38.502 58.875,27.965 C58.875,17.428 58.875,10.543 58.875,10.543 C58.875,10.543 60.503,0 39.43,0 z M28.819,6.092 C30.734,6.092 32.281,7.639 32.281,9.554 C32.281,11.468 30.734,13.016 28.819,13.016 C26.905,13.016 25.357,11.468 25.357,9.554 C25.357,7.639 26.905,6.092 28.819,6.092 z" fill="url(#Gradient_1)" id="path8615"/>
    <path d="M40.002,79.019 C60.167,79.019 58.908,70.274 58.908,70.274 L58.886,61.214 L39.643,61.214 L39.643,58.494 L66.529,58.494 C66.529,58.494 79.432,59.958 79.432,39.611 C79.432,19.265 68.17,19.986 68.17,19.986 L61.448,19.986 L61.448,29.428 C61.448,29.428 61.811,40.69 50.366,40.69 C38.921,40.69 31.28,40.69 31.28,40.69 C31.28,40.69 20.557,40.517 20.557,51.054 C20.557,61.59 20.557,68.475 20.557,68.475 C20.557,68.475 18.929,79.019 40.002,79.019 z M50.613,72.926 C48.698,72.926 47.151,71.379 47.151,69.465 C47.151,67.55 48.698,66.003 50.613,66.003 C52.527,66.003 54.075,67.55 54.075,69.465 C54.075,71.379 52.527,72.926 50.613,72.926 z" fill="url(#Gradient_2)" id="path8620"/>
    <path d="M69.26,79.116 L69.26,75.168 C69.646,75.144 70.033,75.119 70.419,75.119 C81.144,74.778 88.174,84.429 88.174,84.429 C88.174,84.429 80.589,95.054 72.448,95.054 C71.361,95.054 70.298,94.883 69.284,94.542 L69.284,82.552 C73.463,83.064 74.308,84.916 76.796,89.132 L82.376,84.404 C82.376,84.404 78.294,79.019 71.434,79.019 C70.709,78.994 69.984,79.043 69.26,79.116 M69.26,66.054 L69.26,71.951 L70.419,71.878 C85.323,71.366 95.058,84.209 95.058,84.209 C95.058,84.209 83.898,97.905 72.279,97.905 C71.265,97.905 70.274,97.807 69.284,97.637 L69.284,101.292 C70.105,101.39 70.951,101.463 71.772,101.463 C82.594,101.463 90.42,95.882 98.005,89.302 C99.261,90.326 104.406,92.787 105.469,93.86 C98.271,99.952 81.482,104.85 71.965,104.85 C71.047,104.85 70.178,104.801 69.308,104.704 L69.308,109.846 L110.421,109.846 L110.421,66.054 z M69.26,94.542 L69.26,97.661 C59.259,95.858 56.481,85.355 56.481,85.355 C56.481,85.355 61.288,79.993 69.26,79.116 L69.26,82.528 L69.236,82.528 C65.057,82.016 61.771,85.964 61.771,85.964 C61.771,85.964 63.631,92.617 69.26,94.542 M51.505,84.916 C51.505,84.916 57.423,76.094 69.284,75.168 L69.284,71.951 C56.143,73.023 44.79,84.234 44.79,84.234 C44.79,84.234 51.215,102.998 69.26,104.704 L69.26,101.292 C56.022,99.635 51.505,84.916 51.505,84.916 z" fill="#76B900" id="path1003"/>
  </g>
</svg>
