<?xml version="1.0" encoding="UTF-8"?>
<!DOCTYPE svg PUBLIC "-//W3C//DTD SVG 1.1//EN" "http://www.w3.org/Graphics/SVG/1.1/DTD/svg11.dtd">
<svg version="1.1" xmlns="http://www.w3.org/2000/svg" xmlns:xlink="http://www.w3.org/1999/xlink" x="0" y="0" width="619.594" height="619.594" viewBox="0, 0, 619.594, 619.594">
  <g id="Blue_Gradient_Letters" transform="translate(-8.881, -3.133)">
    <path d="M537.737,93.871 C658.721,214.854 658.721,411.007 537.737,531.99 C416.754,652.973 220.602,652.973 99.618,531.99 C-21.365,411.007 -21.365,214.854 99.618,93.871 C220.602,-27.112 416.754,-27.112 537.737,93.871 z" fill="#75AADB"/>
    <path d="M424.7,411.8 L458.3,411.8 L458.3,437.9 L407,437.9 L322,310.5 L276.7,310.5 L276.7,411.8 L321,411.8 L321,437.9 L209.5,437.9 L209.5,411.8 L247.8,411.8 L247.8,187.3 L209.5,182.6 L209.5,157.9 C224,161.2 236.6,163.5 252.4,163.5 C276.2,163.5 300.5,157.9 324.3,157.9 C370.5,157.9 413.4,178.9 413.4,230.2 C413.4,269.9 389.6,295.1 352.7,305.8 L424.7,411.8 z M276.7,285.3 L301,285.8 C360.3,286.7 383.1,263.9 383.1,233.5 C383.1,198 357.4,184 324.8,184 C309.4,184 293.5,185.4 276.7,187.3 L276.7,285.3 z" fill="#FFFFFF"/>
  </g>
</svg>
