<?xml version="1.0" encoding="UTF-8"?>
<!DOCTYPE svg PUBLIC "-//W3C//DTD SVG 1.1//EN" "http://www.w3.org/Graphics/SVG/1.1/DTD/svg11.dtd">
<svg version="1.1" xmlns="http://www.w3.org/2000/svg" xmlns:xlink="http://www.w3.org/1999/xlink" x="0" y="0" width="114.561" height="122.834" viewBox="0, 0, 114.561, 122.834">
  <g id="layer1" transform="translate(-0, 0)">
    <path d="M65.463,18.896 L65.463,37.795 L98.193,56.693 L98.193,37.795 z M0,37.795 L0,56.693 L16.365,66.141 L16.365,47.244 z M49.096,47.244 L32.73,56.693 L32.73,113.385 L49.096,122.834 L49.096,85.039 L65.463,94.488 L65.463,75.59 L49.096,66.141 z" fill="#E55B2D" id="path4508"/>
    <path d="M65.463,18.896 L16.365,47.244 L16.365,66.141 L49.096,47.244 L49.096,66.141 L65.463,56.693 z M114.561,28.346 L98.193,37.795 L98.193,56.693 L114.561,47.244 z M81.828,66.141 L65.463,75.59 L65.463,94.488 L81.828,85.039 z M65.463,94.488 L49.096,85.039 L49.096,122.834 L65.463,113.385 z" fill="#ED8E24" id="path4491"/>
    <path d="M65.463,-0 L0,37.795 L16.365,47.244 L65.463,18.896 L98.193,37.795 L114.561,28.346 z M65.463,56.693 L49.096,66.141 L65.463,75.59 L81.828,66.141 z" fill="#F8BF3C" id="path4506"/>
  </g>
</svg>
