<?xml version="1.0" encoding="UTF-8"?>
<!DOCTYPE svg PUBLIC "-//W3C//DTD SVG 1.1//EN" "http://www.w3.org/Graphics/SVG/1.1/DTD/svg11.dtd">
<svg version="1.1" xmlns="http://www.w3.org/2000/svg" xmlns:xlink="http://www.w3.org/1999/xlink" x="0" y="0" width="114.561" height="122.834" viewBox="0, 0, 114.561, 122.834">
  <g id="layer1" transform="translate(-0, 0)">
    <path d="M65.463,18.896 L65.463,37.795 L98.193,56.693 L98.193,37.795 z M0,37.795 L0,56.693 L16.365,66.141 L16.365,47.244 z M49.096,47.244 L32.73,56.693 L32.73,113.385 L49.096,122.834 L49.096,85.039 L65.463,94.488 L65.463,75.59 L49.096,66.141 z" fill="#E55B2D" id="path4508"/>
    <path d="M65.463,18.896 L16.365,47.244 L16.365,66.141 L49.096,47.244 L49.096,66.141 L65.463,56.693 z M114.561,28.346 L98.193,37.795 L98.193,56.693 L114.561,47.244 z M81.828,66.141 L65.463,75.59 L65.463,94.488 L81.828,85.039 z M65.463,94.488 L49.096,85.039 L49.096,122.834 L65.463,113.385 z" fill="#ED8E24" id="path4491"/>
    <path d="M65.463,-0 L0,37.795 L16.365,47.244 L65.463,18.896 L98.193,37.795 L114.561,28.346 z M65.463,56.693 L49.096,66.141 L65.463,75.59 L81.828,66.141 z" fill="#F8BF3C" id="path4506"/>
    <path d="M65.875,92.342 L65.875,88.425 C66.289,88.4 66.704,88.376 67.119,88.376 C78.627,88.038 86.169,97.613 86.169,97.613 C86.169,97.613 78.031,108.156 69.296,108.156 C68.13,108.156 66.989,107.987 65.901,107.648 L65.901,95.751 C70.385,96.259 71.292,98.097 73.961,102.28 L79.949,97.589 C79.949,97.589 75.568,92.245 68.207,92.245 C67.43,92.221 66.652,92.269 65.875,92.342 M65.875,79.381 L65.875,85.233 L67.119,85.16 C83.111,84.652 93.556,97.396 93.556,97.396 C93.556,97.396 81.582,110.985 69.115,110.985 C68.026,110.985 66.963,110.889 65.901,110.719 L65.901,114.346 C66.782,114.443 67.689,114.516 68.57,114.516 C80.182,114.516 88.58,108.978 96.718,102.449 C98.066,103.465 103.587,105.907 104.727,106.971 C97.004,113.016 78.99,117.877 68.778,117.877 C67.793,117.877 66.86,117.828 65.926,117.732 L65.926,122.834 L110.041,122.834 L110.041,79.381 z M65.875,107.648 L65.875,110.744 C55.144,108.954 52.163,98.532 52.163,98.532 C52.163,98.532 57.321,93.212 65.875,92.342 L65.875,95.727 L65.849,95.727 C61.365,95.219 57.84,99.137 57.84,99.137 C57.84,99.137 59.835,105.738 65.875,107.648 M46.824,98.097 C46.824,98.097 53.174,89.343 65.901,88.425 L65.901,85.233 C51.801,86.297 39.619,97.42 39.619,97.42 C39.619,97.42 46.513,116.039 65.875,117.732 L65.875,114.347 C51.671,112.702 46.824,98.097 46.824,98.097 z" fill="#76B900" id="path1003"/>
  </g>
</svg>
